<svg xmlns="http://www.w3.org/2000/svg" width="64" height="86" fill="none"><g clip-path="url(#a)"><path fill="#fff" d="M61.65 16.65 47.667 2.667a8 8 0 0 0-5.65-2.35H8c-4.417.016-8 3.6-8 8.016v69.334c0 4.416 3.583 8 8 8h48c4.417 0 8-3.584 8-8v-55.35c0-2.117-.85-4.167-2.35-5.667Zm-6.3 5.017H42.667V8.983L55.35 21.667ZM8 77.667V8.333h26.667v17.334c0 2.216 1.783 4 4 4H56v48H8Zm41.7-23.95c-2.033-2-7.833-1.45-10.733-1.084-2.867-1.75-4.784-4.166-6.134-7.716.65-2.684 1.684-6.767.9-9.334-.7-4.366-6.3-3.933-7.1-.983-.733 2.683-.066 6.417 1.167 11.183-1.667 3.984-4.15 9.334-5.9 12.4-3.333 1.717-7.833 4.367-8.5 7.7-.55 2.634 4.333 9.2 12.683-5.2 3.734-1.233 7.8-2.75 11.4-3.35 3.15 1.7 6.834 2.834 9.3 2.834 4.25 0 4.667-4.7 2.917-6.45ZM16.683 66.683c.85-2.283 4.084-4.916 5.067-5.833-3.167 5.05-5.067 5.95-5.067 5.833Zm13.6-31.766c1.234 0 1.117 5.35.3 6.8-.733-2.317-.716-6.8-.3-6.8Zm-4.066 22.766c1.616-2.816 3-6.166 4.116-9.116 1.384 2.516 3.15 4.533 5.017 5.916-3.467.717-6.483 2.184-9.133 3.2Zm21.933-.833s-.833 1-6.217-1.3c5.85-.433 6.817.9 6.217 1.3Z"/></g><defs><clipPath id="a"><path fill="#fff" d="M0 .333h64v85.333H0z"/></clipPath></defs></svg>