<svg xmlns="http://www.w3.org/2000/svg" width="26" height="32" fill="none"><path fill="#FDB501" d="m6.614 29.858-.685-6.833 6.26 2.823-5.575 4.01Z"/><path fill="#FDB501" fill-rule="evenodd" d="M13 26c7.18 0 13-5.82 13-13S20.18 0 13 0 0 5.82 0 13s5.82 13 13 13Zm1.404-7V8.434h-3.3V19h3.3ZM11.416 4.557c-.338.3-.508.683-.508 1.152 0 .469.17.853.508 1.152.339.3.778.45 1.318.45s.98-.15 1.319-.45c.338-.3.507-.683.507-1.152 0-.469-.169-.853-.507-1.152-.339-.3-.778-.45-1.319-.45-.54 0-.98.15-1.318.45Z" clip-rule="evenodd"/></svg>